# xmcd
#
# Track frame offsets:
#	150
#	9960
#	19370
#	38373
#	46819
#	57683
#	67650
#	78535
#	88893
#	98766
#	108374
#	119670
#	132197
#	142254
#
# Disc length: 2022 seconds
#
# Revision: 0
# Processed by: cddbd v1.5PL3 Copyright (c) Steve Scherf et al.
# Submitted via: audiograbber 1.80
#
DISCID=ba07e40e
DTITLE=Das Große Berliner Ballhausorchester - Bis früh um fünfe, kleine Maus  (
DTITLE=Melodien von Paul Lincke)
DYEAR=1900
DGENRE=
TTITLE0=Das macht die Berliner Luft
TTITLE1=Schenk mir doch ein kleines bißchen Liebe!
TTITLE2=Verschmähte Liebe-Grigri-Walzer-O Frühling,wie bist du so schön
TTITLE3=Ja solch Jahrmarktsrummel-Nach der Liebesinsel laß uns gehn
TTITLE4=Wenn auch die Jahre enteilen (Es war einmal)-Rosen,Tulpen,Nelken
TTITLE5=Glühwürmchen-Idyll
TTITLE6=Folies Bergère
TTITLE7=Nimm mich mit-Hinterm Ofen sitzt' ne Maus-Ach,die Weiber sind so schlec
TTITLE7=ht
TTITLE8=Die Liebe kam vom Märchenwald-Wenn in linder Frühlingsnacht-In deinen A
TTITLE8=ugen
TTITLE9=Indra-Marsch
TTITLE10=Heimlich, still und leise-Die Gigerlkönigin-Meine Muff ist weg
TTITLE11=Geburtstags-Ständchen
TTITLE12=Schlösser die im Monde liegen-Lose, muntre Lieder-O Theophil !
TTITLE13=Laßt den Kopf nicht hängen-Der der Zauber von Berlin-Bis früh um fünfe
TTITLE13=
EXTD=
EXTT0=
EXTT1=
EXTT2=
EXTT3=
EXTT4=
EXTT5=
EXTT6=
EXTT7=
EXTT8=
EXTT9=
EXTT10=
EXTT11=
EXTT12=
EXTT13=
PLAYORDER=
